<?xml version="1.0" standalone="no"?>
<!DOCTYPE svg PUBLIC "-//W3C//DTD SVG 20010904//EN"
 "http://www.w3.org/TR/2001/REC-SVG-20010904/DTD/svg10.dtd">
<svg version="1.0" xmlns="http://www.w3.org/2000/svg"
 width="172.000000pt" height="37.000000pt" viewBox="0 0 172.000000 37.000000"
 preserveAspectRatio="xMidYMid meet">

<g transform="translate(0.000000,37.000000) scale(0.100000,-0.100000)"
fill="#000000" stroke="none">
<path d="M565 271 l0 -70 39 4 c51 6 60 16 59 65 -1 52 -17 70 -62 70 l-36 0
0 -69z m63 37 c17 -17 15 -63 -3 -78 -22 -19 -35 -3 -35 46 0 45 13 57 38 32z"/>
<path d="M685 272 l0 -68 70 2 c86 3 81 2 67 16 -14 14 -16 98 -2 98 6 0 10 5
10 10 0 6 -10 10 -23 10 -22 0 -23 -3 -19 -60 3 -38 1 -60 -6 -60 -6 0 -13 6
-15 13 -4 9 -8 9 -15 -2 -20 -28 -42 -4 -42 44 0 25 5 45 10 45 6 0 10 5 10
10 0 6 -10 10 -22 10 -22 0 -23 -4 -23 -68z"/>
<path d="M905 271 c0 -62 2 -68 20 -68 18 0 20 6 20 68 0 62 -2 69 -20 69 -18
0 -20 -7 -20 -69z"/>
<path d="M960 324 c0 -11 6 -14 21 -9 21 7 21 5 17 -52 -4 -55 -2 -59 17 -59
19 0 21 4 17 58 -3 39 -1 58 7 58 6 0 11 -5 11 -11 0 -5 5 -7 10 -4 6 3 10 13
10 21 0 10 -14 14 -55 14 -43 0 -55 -3 -55 -16z"/>
<path d="M1135 324 c-11 -11 -15 -30 -13 -58 2 -33 8 -43 30 -54 38 -18 67 -2
61 33 -3 14 -12 25 -20 25 -10 0 -13 -6 -9 -16 9 -24 -3 -35 -25 -23 -15 7
-19 19 -17 41 4 40 34 60 52 36 16 -22 29 -12 15 13 -12 23 -52 25 -74 3z"/>
<path d="M1235 272 c0 -64 1 -68 23 -68 16 0 21 4 17 16 -11 27 -10 34 6 37
11 3 18 -5 22 -25 4 -17 12 -29 22 -29 11 0 14 6 9 16 -3 9 -8 35 -10 59 -5
57 -9 62 -52 62 l-37 0 0 -68z m65 28 c0 -11 -4 -20 -10 -20 -5 0 -13 0 -17 0
-9 0 -12 20 -6 33 8 15 33 6 33 -13z"/>
<path d="M1366 321 c-23 -26 -18 -89 9 -107 16 -11 25 -11 45 -1 20 10 26 21
28 55 2 24 -2 50 -9 58 -16 20 -53 17 -73 -5z m62 -42 c4 -43 -19 -69 -43 -49
-18 15 -20 61 -3 78 22 22 43 9 46 -29z"/>
<path d="M1460 330 c0 -5 5 -10 10 -10 6 0 10 -22 10 -50 0 -37 4 -52 18 -59
9 -5 19 -10 22 -12 3 -1 15 3 28 10 18 10 22 20 22 61 0 28 5 50 10 50 6 0 10
5 10 10 0 6 -11 10 -24 10 -22 0 -23 -3 -18 -45 5 -53 -11 -83 -35 -63 -11 9
-14 26 -11 60 5 45 4 48 -18 48 -13 0 -24 -4 -24 -10z"/>
<path d="M1605 294 c3 -25 0 -54 -5 -65 -9 -16 -7 -19 14 -19 19 0 23 4 19 20
-3 11 0 21 6 21 39 5 51 16 51 49 0 30 -14 40 -60 40 -29 0 -29 -1 -25 -46z
m60 1 c0 -11 -8 -21 -17 -23 -14 -3 -18 3 -18 23 0 20 4 26 18 23 9 -2 17 -12
17 -23z"/>
<path d="M840 260 c0 -5 11 -10 25 -10 14 0 25 5 25 10 0 6 -11 10 -25 10 -14
0 -25 -4 -25 -10z"/>
<path d="M560 115 l0 -65 565 0 565 0 0 65 0 65 -565 0 -565 0 0 -65z m190 5
c0 -22 -4 -40 -10 -40 -5 0 -10 18 -10 40 0 22 5 40 10 40 6 0 10 -18 10 -40z
m464 9 c-3 -5 -1 -9 5 -9 5 0 9 -9 8 -20 -2 -31 -51 -23 -55 8 -5 31 16 56 34
41 8 -6 11 -15 8 -20z m456 -10 c0 -36 -2 -40 -22 -37 -29 4 -35 34 -11 58 27
28 33 24 33 -21z m-1034 19 c5 -8 1 -9 -12 -5 -19 7 -19 7 0 -7 20 -16 16 -46
-7 -46 -22 0 -34 19 -29 46 5 25 35 33 48 12z m230 -26 c2 -40 -21 -43 -29 -5
-6 32 0 46 16 40 6 -2 12 -18 13 -35z m44 3 c0 -19 -4 -35 -10 -35 -5 0 -10
16 -10 35 0 19 5 35 10 35 6 0 10 -16 10 -35z m428 3 c-2 -25 -8 -34 -25 -36
-13 -2 -23 0 -24 5 -7 61 -7 63 23 63 27 0 29 -3 26 -32z m-630 -4 c3 -22 -21
-39 -39 -28 -11 6 -12 38 -2 48 13 13 38 1 41 -20z m83 4 l2 -23 4 23 c6 32
25 27 21 -5 -4 -36 -35 -43 -47 -11 -9 24 -6 38 10 38 5 0 10 -10 10 -22z
m184 -8 c0 -29 -32 -41 -41 -16 -9 24 4 48 23 44 12 -2 18 -12 18 -28z m73 -2
c2 -16 -1 -28 -7 -28 -6 0 -11 6 -12 13 0 10 -2 10 -6 0 -9 -24 -23 -13 -23
18 0 26 3 30 23 27 16 -2 23 -11 25 -30z m57 2 c0 -36 -29 -33 -33 3 -3 23 0
28 15 25 12 -2 18 -12 18 -28z m300 0 c0 -29 -32 -41 -41 -16 -9 24 4 48 23
44 12 -2 18 -12 18 -28z m36 18 c0 -10 2 -10 6 0 2 6 9 12 15 12 12 0 2 -48
-14 -67 -18 -22 -23 -15 -23 27 0 22 3 40 7 40 5 0 8 -6 9 -12z m97 -16 c4
-26 -21 -40 -42 -23 -8 7 -12 21 -9 32 8 28 47 22 51 -9z m67 -4 c1 -16 -2
-28 -7 -28 -4 0 -8 5 -8 11 0 8 -5 8 -15 -1 -8 -7 -15 -11 -16 -9 -10 51 -6
61 24 57 15 -2 21 -11 22 -30z"/>
</g>
</svg>
