<?xml version="1.0" standalone="no"?>
<!DOCTYPE svg PUBLIC "-//W3C//DTD SVG 20010904//EN"
 "http://www.w3.org/TR/2001/REC-SVG-20010904/DTD/svg10.dtd">
<svg version="1.0" xmlns="http://www.w3.org/2000/svg"
 width="356.000000pt" height="72.000000pt" viewBox="0 0 356.000000 72.000000"
 preserveAspectRatio="xMidYMid meet">

<g transform="translate(0.000000,72.000000) scale(0.100000,-0.100000)"
fill="#000000" stroke="none">
<path d="M453 681 c-289 -83 -506 -340 -427 -506 20 -43 76 -83 128 -92 l36
-6 0 137 c0 162 11 195 66 196 46 0 55 -28 61 -184 8 -195 26 -193 33 3 5 135
6 144 29 162 33 27 86 25 116 -6 23 -23 25 -31 25 -130 0 -103 1 -105 20 -95
18 10 20 21 20 110 0 87 3 103 20 120 46 46 100 9 100 -70 0 -27 4 -50 9 -50
16 0 81 84 109 140 20 42 27 70 27 115 0 76 -27 118 -99 151 -64 30 -179 32
-273 5z m17 -151 c24 -24 25 -38 4 -68 -17 -25 -42 -28 -66 -9 -28 21 -31 54
-9 76 26 26 46 26 71 1z m-182 -47 c3 -28 -1 -33 -23 -39 -29 -7 -55 10 -55
35 0 25 22 42 50 39 20 -2 26 -9 28 -35z m360 25 c30 -30 0 -75 -43 -64 -41
11 -29 76 15 76 9 0 21 -5 28 -12z"/>
<path d="M1017 323 c-4 -3 -7 -73 -7 -155 l0 -148 303 -1 c166 0 732 0 1257 0
l955 0 0 153 0 153 -1251 3 c-688 1 -1254 -1 -1257 -5z m133 -88 c16 -19 5
-34 -12 -17 -17 17 -58 15 -58 -3 0 -8 16 -19 39 -25 50 -13 64 -45 31 -72
-25 -21 -38 -22 -74 -8 -25 9 -38 50 -16 50 6 0 10 -4 10 -10 0 -14 37 -31 54
-24 25 10 18 33 -11 40 -32 8 -63 32 -63 49 0 34 76 49 100 20z m250 -55 c0
-40 -4 -70 -10 -70 -6 0 -10 30 -10 70 0 40 4 70 10 70 6 0 10 -30 10 -70z
m254 27 c8 -6 8 -10 -1 -14 -15 -6 -17 -59 -3 -68 17 -10 11 -27 -7 -23 -13 2
-20 17 -24 53 -6 53 10 120 19 80 2 -11 9 -24 16 -28z m76 33 c0 -5 -4 -10
-10 -10 -5 0 -10 5 -10 10 0 6 5 10 10 10 6 0 10 -4 10 -10z m694 -6 c4 -9 0
-24 -9 -34 -17 -19 -11 -30 17 -30 15 0 18 -5 13 -19 -3 -11 -1 -22 5 -26 6
-3 8 -11 4 -16 -4 -7 -10 -7 -18 0 -7 6 -17 6 -26 1 -22 -14 -47 -12 -64 6
-20 19 -20 38 -1 58 8 8 12 22 9 30 -3 9 -4 23 0 31 8 21 62 20 70 -1z m286 1
c6 -8 9 -23 5 -35 -4 -12 -1 -27 5 -35 19 -23 -4 -52 -47 -57 -59 -8 -63 -3
-63 73 l0 69 44 0 c26 0 48 -6 56 -15z m760 -57 c0 -72 0 -73 -27 -75 -42 -2
-63 14 -63 47 0 46 10 60 41 60 22 0 29 5 29 20 0 11 5 20 10 20 6 0 10 -31
10 -72z m-2157 11 c37 -52 -32 -118 -77 -73 -19 18 -21 65 -4 82 19 19 65 14
81 -9z m177 -25 c0 -38 3 -45 18 -42 12 2 18 15 20 46 4 58 22 53 22 -7 0 -44
-3 -49 -25 -55 -44 -11 -65 9 -65 59 0 33 4 45 15 45 11 0 15 -12 15 -46z
m240 -4 c0 -27 -4 -50 -10 -50 -5 0 -10 23 -10 50 0 28 5 50 10 50 6 0 10 -22
10 -50z m148 38 c20 -20 15 -76 -7 -88 -43 -22 -81 1 -81 49 0 34 17 51 50 51
14 0 31 -5 38 -12z m160 -37 c2 -24 -2 -49 -7 -54 -8 -8 -11 -1 -11 24 0 43
-13 64 -34 56 -10 -4 -16 -18 -16 -41 0 -19 -4 -38 -10 -41 -6 -4 -10 15 -10
50 l0 56 43 -3 42 -3 3 -44z m140 32 c2 -9 -5 -11 -29 -6 -23 4 -30 3 -25 -5
4 -7 15 -12 25 -12 24 0 43 -23 35 -43 -12 -32 -76 -33 -88 -2 -6 17 19 21 29
5 8 -13 35 -13 35 1 0 5 -13 15 -30 20 -28 10 -40 36 -23 53 11 11 66 2 71
-11z m690 5 c7 -7 12 -20 12 -30 0 -14 -8 -18 -42 -18 -39 0 -41 -1 -26 -16
13 -13 19 -14 36 -3 27 17 43 2 18 -17 -41 -29 -86 -6 -86 45 0 34 17 51 50
51 14 0 31 -5 38 -12z m97 -29 l12 -34 12 38 c7 20 19 37 27 37 11 0 10 -10
-7 -52 -33 -86 -58 -115 -74 -89 -3 6 3 14 12 20 17 9 17 12 1 59 -21 59 -22
65 -6 60 6 -2 17 -20 23 -39z m202 19 c24 -57 -34 -112 -77 -73 -22 20 -27 64
-8 83 21 21 74 15 85 -10z m151 -30 c4 -56 -15 -66 -20 -10 -2 29 -7 37 -23
37 -16 0 -21 -8 -23 -37 -5 -56 -22 -46 -22 13 l0 50 43 -3 42 -3 3 -47z"/>
<path d="M2376 215 c4 -8 10 -12 15 -9 14 8 10 24 -6 24 -9 0 -12 -6 -9 -15z"/>
<path d="M2363 154 c-7 -20 9 -36 30 -28 13 5 14 9 4 25 -14 23 -26 24 -34 3z"/>
<path d="M2630 210 c0 -16 7 -20 30 -20 23 0 30 4 30 20 0 16 -7 20 -30 20
-23 0 -30 -4 -30 -20z"/>
<path d="M2630 151 c0 -17 6 -21 36 -21 28 0 35 3 32 18 -2 11 -14 18 -36 20
-27 3 -32 0 -32 -17z"/>
<path d="M3405 179 c-4 -5 -4 -21 -1 -35 10 -37 40 -28 44 14 3 26 0 32 -17
32 -11 0 -23 -5 -26 -11z"/>
<path d="M1246 175 c-6 -17 9 -55 22 -55 37 1 42 63 6 68 -13 2 -24 -4 -28
-13z"/>
<path d="M1817 184 c-12 -12 -8 -41 8 -54 20 -17 47 5 43 34 -3 21 -37 34 -51
20z"/>
<path d="M2805 180 c-4 -6 5 -10 19 -10 14 0 26 5 26 10 0 6 -9 10 -19 10 -11
0 -23 -4 -26 -10z"/>
<path d="M3096 175 c-6 -17 9 -55 22 -55 37 1 42 63 6 68 -13 2 -24 -4 -28
-13z"/>
</g>
</svg>
